# Blender v2.90.1 OBJ File: 'robot_texture.blend'
# www.blender.org
mtllib robot_texture.mtl
o RobotTex_Mesh
v 0.100000 0.100000 -0.100000
v 0.100000 -0.100000 -0.100000
v 0.100000 0.100000 0.100000
v 0.100000 -0.100000 0.100000
v -0.100000 0.100000 -0.100000
v -0.100000 -0.100000 -0.100000
v -0.100000 0.100000 0.100000
v -0.100000 -0.100000 0.100000
v 0.039640 0.319577 0.039640
v -0.039640 0.319577 0.039640
v 0.039640 0.319577 -0.039640
v -0.039640 0.319577 -0.039640
v 0.070778 0.465943 0.070778
v -0.070778 0.465943 0.070778
v 0.070778 0.465943 -0.070778
v -0.070778 0.465943 -0.070778
v 0.070778 0.574785 0.070778
v -0.070778 0.574785 0.070778
v 0.070778 0.574785 -0.070778
v -0.070778 0.574785 -0.070778
v 0.036361 0.603924 0.036361
v -0.036361 0.603924 0.036361
v 0.036361 0.603924 -0.036361
v -0.036361 0.603924 -0.036361
v 0.036361 0.622896 0.036361
v -0.036361 0.622896 0.036361
v 0.036361 0.622896 -0.036361
v -0.036361 0.622896 -0.036361
v 0.052774 0.643794 0.052774
v -0.052774 0.643794 0.052774
v 0.052774 0.643794 -0.052774
v -0.052774 0.643794 -0.052774
v 0.058197 0.722006 0.058197
v -0.058197 0.722006 0.058197
v 0.058197 0.722006 -0.058197
v -0.058197 0.722006 -0.058197
v 0.028575 0.764915 0.028575
v -0.028575 0.764915 0.028575
v 0.028575 0.764915 -0.028575
v -0.028575 0.764915 -0.028575
v 0.098092 0.489106 -0.040654
v 0.098092 0.489106 0.040654
v 0.098092 0.551623 -0.040654
v 0.098092 0.551623 0.040654
v -0.098092 0.489106 0.040654
v -0.098092 0.489106 -0.040654
v -0.098092 0.551623 0.040654
v -0.098092 0.551623 -0.040654
v -0.128092 0.489106 0.040654
v -0.128092 0.489106 -0.040654
v -0.128092 0.551623 0.040654
v -0.128092 0.551623 -0.040654
v 0.128092 0.489106 -0.040654
v 0.128092 0.489106 0.040654
v 0.128092 0.551623 -0.040654
v 0.128092 0.551623 0.040654
v 0.103989 0.400565 -0.024672
v 0.103989 0.400565 0.024672
v -0.103989 0.400565 0.024672
v -0.103989 0.400565 -0.024672
v -0.122195 0.400565 0.024672
v -0.122195 0.400565 -0.024672
v 0.122195 0.400565 -0.024672
v 0.122195 0.400565 0.024672
v 0.098092 0.353791 -0.040654
v 0.098092 0.335624 0.040654
v -0.098092 0.335624 0.040654
v -0.098092 0.353791 -0.040654
v -0.128092 0.335624 0.040654
v -0.128092 0.353791 -0.040654
v 0.128092 0.353791 -0.040654
v 0.128092 0.335624 0.040654
v 0.098092 0.234285 -0.079572
v 0.098092 0.234285 -0.048174
v -0.098092 0.234285 -0.048174
v -0.098092 0.234285 -0.079572
v -0.128092 0.234285 -0.048174
v -0.128092 0.234285 -0.079572
v 0.128092 0.234285 -0.079572
v 0.128092 0.234285 -0.048174
v 0.098092 0.207583 -0.104626
v 0.098092 0.192117 -0.077302
v -0.098092 0.192117 -0.077302
v -0.098092 0.207583 -0.104626
v -0.128092 0.192117 -0.077302
v -0.128092 0.207583 -0.104626
v 0.128092 0.207583 -0.104626
v 0.128092 0.192117 -0.077302
v 0.105592 0.186814 -0.107362
v 0.105592 0.179081 -0.093700
v -0.105592 0.179081 -0.093700
v -0.105592 0.186814 -0.107362
v -0.120592 0.179081 -0.093700
v -0.120592 0.186814 -0.107362
v 0.120592 0.186814 -0.107362
v 0.120592 0.179081 -0.093700
vt 0.361776 0.180764
vt 0.235740 0.386301
vt 0.181260 0.180764
vt 0.180764 0.361279
vt 0.000248 0.180764
vt 0.180764 0.180764
vt 0.369050 0.183648
vt 0.552126 0.000570
vt 0.369049 0.000570
vt 0.180764 0.000248
vt 0.000248 0.000248
vt 0.369070 0.183679
vt 0.552146 0.000601
vt 0.369069 0.000601
vt 0.181260 0.000248
vt 0.361776 0.000248
vt 0.424310 0.392101
vt 0.525368 0.529051
vt 0.496874 0.392099
vt 0.054728 0.566817
vt 0.000248 0.361279
vt 0.552126 0.183647
vt 0.496894 0.392130
vt 0.552146 0.183678
vt 0.335400 0.521364
vt 0.207635 0.619603
vt 0.207635 0.521364
vt 0.126284 0.566817
vt 0.026623 0.701880
vt 0.307296 0.386301
vt 0.424331 0.392131
vt 0.525388 0.529082
vt 0.394883 0.635328
vt 0.492928 0.676593
vt 0.524420 0.635324
vt 0.492176 0.604967
vt 0.524440 0.635354
vt 0.492156 0.604936
vt 0.154389 0.701880
vt 0.026623 0.800118
vt 0.123324 0.840820
vt 0.057687 0.857945
vt 0.057687 0.840820
vt 0.154388 0.800118
vt 0.335400 0.619603
vt 0.238699 0.660305
vt 0.394903 0.635358
vt 0.492948 0.676623
vt 0.304336 0.677429
vt 0.223885 0.701413
vt 0.238699 0.677429
vt 0.304336 0.660305
vt 0.426397 0.676626
vt 0.492952 0.693988
vt 0.426377 0.676595
vt 0.492931 0.693957
vt 0.411350 0.718281
vt 0.512924 0.790039
vt 0.507958 0.718279
vt 0.426395 0.693990
vt 0.507978 0.718310
vt 0.426375 0.693959
vt 0.123324 0.857945
vt 0.042873 0.881929
vt 0.324045 0.772175
vt 0.245726 0.819236
vt 0.218990 0.772175
vt 0.138139 0.881929
vt 0.037978 0.952691
vt 0.319151 0.701413
vt 0.411371 0.718312
vt 0.512944 0.790070
vt 0.297309 0.819236
vt 0.245726 0.870819
vt 0.406408 0.790072
vt 0.485832 0.837796
vt 0.406388 0.790041
vt 0.485812 0.837765
vt 0.143033 0.952691
vt 0.064714 0.999752
vt 0.713930 0.424338
vt 0.694279 0.357676
vt 0.723983 0.362427
vt 0.395840 0.529085
vt 0.490002 0.556727
vt 0.428108 0.559472
vt 0.430285 0.607712
vt 0.805257 0.424346
vt 0.824602 0.359773
vt 0.795794 0.364314
vt 0.430265 0.607682
vt 0.428088 0.559442
vt 0.395820 0.529055
vt 0.489982 0.556697
vt 0.664224 0.846564
vt 0.746037 0.889876
vt 0.736569 0.834250
vt 0.750581 0.916569
vt 0.673692 0.902190
vt 0.678235 0.928883
vt 0.723967 0.362496
vt 0.684255 0.419532
vt 0.713935 0.424346
vt 0.786539 0.271717
vt 0.795802 0.364322
vt 0.736444 0.835025
vt 0.673566 0.902965
vt 0.664098 0.847339
vt 0.708784 0.758489
vt 0.834068 0.419902
vt 0.805287 0.424405
vt 0.678110 0.929659
vt 0.745912 0.890651
vt 0.750455 0.917345
vt 0.805320 0.271717
vt 0.793170 0.221110
vt 0.786556 0.271717
vt 0.664879 0.765962
vt 0.715864 0.714120
vt 0.714546 0.271717
vt 0.732661 0.271717
vt 0.665005 0.765187
vt 0.714559 0.271717
vt 0.694287 0.357682
vt 0.805282 0.271717
vt 0.824644 0.359803
vt 0.732728 0.271717
vt 0.793130 0.221103
vt 0.769253 0.105121
vt 0.818474 0.217189
vt 0.729794 0.227227
vt 0.745617 0.117066
vt 0.729795 0.227223
vt 0.703205 0.231114
vt 0.715990 0.713345
vt 0.640888 0.709596
vt 0.718318 0.110819
vt 0.685736 0.083383
vt 0.684225 0.118309
vt 0.684224 0.118316
vt 0.706537 0.090094
vt 0.718335 0.110798
vt 0.704313 0.606663
vt 0.732243 0.601870
vt 0.818563 0.217058
vt 0.745628 0.117077
vt 0.703207 0.231088
vt 0.704438 0.605888
vt 0.708302 0.063056
vt 0.716731 0.075033
vt 0.730769 0.082255
vt 0.716725 0.075013
vt 0.706397 0.089989
vt 0.732369 0.601095
vt 0.723913 0.563930
vt 0.730783 0.082228
vt 0.745767 0.066489
vt 0.723788 0.564705
vt 0.750455 0.574292
vt 0.769255 0.105132
vt 0.723585 0.072741
vt 0.708355 0.063063
vt 0.719794 0.061995
vt 0.723592 0.072791
vt 0.750271 0.553437
vt 0.736937 0.548643
vt 0.750146 0.554212
vt 0.719785 0.061964
vt 0.297309 0.870819
vt 0.433522 0.837797
vt 0.433502 0.837766
vt 0.116297 0.999752
vt 0.684273 0.419554
vt 0.834065 0.419805
vt 0.640762 0.710371
vt 0.708910 0.757714
vt 0.685810 0.083269
vt 0.750581 0.573517
vt 0.745754 0.066490
vt 0.736812 0.549418
vn 0.0000 0.2651 -0.9642
vn 0.0000 0.0000 1.0000
vn -1.0000 0.0000 0.0000
vn 0.0000 -1.0000 0.0000
vn 1.0000 0.0000 0.0000
vn 0.0000 0.0000 -1.0000
vn -0.9781 -0.2081 0.0000
vn 0.0000 0.2651 0.9642
vn -0.9642 0.2651 0.0000
vn 0.9642 0.2651 0.0000
vn 0.0000 -0.2081 0.9781
vn 0.0000 -0.2081 -0.9781
vn 0.9781 -0.2081 0.0000
vn -0.6461 0.7632 0.0000
vn 0.7408 0.0000 0.6717
vn -0.7408 0.0000 -0.6717
vn 0.0000 0.7632 0.6461
vn 0.0000 0.7632 -0.6461
vn 0.6461 0.7632 0.0000
vn 0.0000 -0.6177 -0.7864
vn -0.9976 -0.0692 0.0000
vn 0.7864 -0.6177 0.0000
vn -0.7864 -0.6177 0.0000
vn 0.0000 -0.6177 0.7864
vn 0.0000 0.5681 -0.8229
vn 0.0000 -0.0692 0.9976
vn 0.0000 -0.0692 -0.9976
vn 0.9976 -0.0692 0.0000
vn 0.0000 1.0000 0.0000
vn 0.8229 0.5681 0.0000
vn -0.8229 0.5681 0.0000
vn 0.0000 0.5681 0.8229
vn 0.6468 -0.7627 0.0000
vn 0.7408 0.0000 -0.6717
vn 0.6468 0.7627 0.0000
vn -0.6468 0.7627 0.0000
vn -0.7408 0.0000 0.6717
vn -0.6468 -0.7627 0.0000
vn -0.9978 -0.0665 0.0000
vn 0.9978 -0.0665 0.0000
vn 0.0000 0.2390 0.9710
vn 0.9921 0.1251 0.0000
vn 0.0000 -0.1776 -0.9841
vn 0.0000 -0.1776 0.9841
vn 0.0000 -0.6592 0.7520
vn 0.0000 0.3233 -0.9463
vn -0.9952 0.0956 0.0214
vn 0.0000 0.6843 -0.7292
vn 0.0000 0.3097 -0.9509
vn 0.0000 0.3097 -0.9508
vn 0.0000 0.1306 -0.9914
vn 0.9329 -0.3135 -0.1774
vn 0.0000 -0.5684 0.8228
vn 0.0000 -0.8703 -0.4926
vn -0.9329 -0.3135 -0.1774
vn 0.0000 -0.7828 0.6223
vn 0.9952 0.0956 0.0214
vn -0.9921 0.1251 0.0000
usemtl Material.003
s off
f 5/1/1 11/2/1 1/3/1
f 3/4/2 8/5/2 4/6/2
f 7/7/3 6/8/3 8/9/3
f 2/10/4 8/5/4 6/11/4
f 1/12/5 4/13/5 2/14/5
f 5/1/6 2/15/6 6/16/6
f 10/17/7 16/18/7 12/19/7
f 3/4/8 10/20/8 7/21/8
f 7/7/9 12/19/9 5/22/9
f 1/12/10 9/23/10 3/24/10
f 16/25/6 19/26/6 15/27/6
f 9/28/11 14/29/11 10/20/11
f 12/30/12 15/27/12 11/2/12
f 11/31/13 13/32/13 9/23/13
f 18/33/14 24/34/14 20/35/14
f 13/32/15 44/36/15 17/37/15
f 16/18/16 48/38/16 20/35/16
f 13/39/2 18/40/2 14/29/2
f 21/41/2 26/42/2 22/43/2
f 17/44/17 22/43/17 18/40/17
f 20/45/18 23/46/18 19/26/18
f 19/47/19 21/48/19 17/37/19
f 28/49/20 31/50/20 27/51/20
f 24/52/6 27/51/6 23/46/6
f 23/53/5 25/54/5 21/48/5
f 22/55/3 28/56/3 24/34/3
f 30/57/21 36/58/21 32/59/21
f 27/60/22 29/61/22 25/54/22
f 26/62/23 32/59/23 28/56/23
f 25/63/24 30/64/24 26/42/24
f 36/65/25 39/66/25 35/67/25
f 29/68/26 34/69/26 30/64/26
f 32/70/27 35/67/27 31/50/27
f 31/71/28 33/72/28 29/61/28
f 40/73/29 37/74/29 39/66/29
f 35/75/30 37/76/30 33/72/30
f 34/77/31 40/78/31 36/58/31
f 33/79/32 38/80/32 34/69/32
f 43/81/6 53/82/6 41/83/6
f 15/84/33 42/85/33 13/32/33
f 19/47/34 41/86/34 15/84/34
f 17/37/35 43/87/35 19/47/35
f 47/88/2 49/89/2 45/90/2
f 20/35/36 47/91/36 18/33/36
f 18/33/37 45/92/37 14/93/37
f 14/93/38 46/94/38 16/18/38
f 49/95/3 52/96/3 50/97/3
f 48/98/29 51/99/29 47/100/29
f 46/101/6 52/102/6 48/103/6
f 41/83/39 58/104/39 42/105/39
f 53/106/5 56/107/5 54/108/5
f 54/108/40 63/109/40 53/106/40
f 42/105/2 56/110/2 44/111/2
f 44/112/29 55/113/29 43/114/29
f 61/115/41 67/116/41 59/117/41
f 64/118/42 71/119/42 63/109/42
f 41/83/43 63/120/43 57/121/43
f 50/97/39 61/122/39 49/95/39
f 46/101/43 62/123/43 50/124/43
f 45/90/44 61/115/44 59/117/44
f 42/105/44 64/125/44 54/126/44
f 45/90/40 60/127/40 46/101/40
f 66/128/45 80/129/45 72/130/45
f 65/131/3 74/132/3 66/128/3
f 59/117/42 68/133/42 60/127/42
f 63/120/46 65/131/46 57/121/46
f 62/123/46 68/133/46 70/134/46
f 61/122/47 70/135/47 69/136/47
f 58/104/47 65/131/47 66/128/47
f 58/104/41 72/130/41 64/125/41
f 76/137/48 86/138/48 78/139/48
f 79/140/48 81/141/48 73/142/48
f 71/119/5 80/143/5 79/144/5
f 69/145/45 75/146/45 67/116/45
f 68/133/5 75/146/5 76/137/5
f 71/147/49 73/142/49 65/131/49
f 68/133/50 78/139/50 70/134/50
f 70/135/3 77/148/3 69/136/3
f 81/141/51 95/149/51 89/150/51
f 83/151/52 92/152/52 84/153/52
f 78/154/3 85/155/3 77/148/3
f 73/142/3 82/156/3 74/132/3
f 74/132/53 88/157/53 80/129/53
f 79/144/5 88/158/5 87/159/5
f 77/160/53 83/151/53 75/146/53
f 76/137/5 83/151/5 84/153/5
f 91/161/54 94/162/54 92/152/54
f 89/150/54 96/163/54 90/164/54
f 84/153/51 94/162/51 86/138/51
f 85/155/55 94/165/55 93/166/55
f 82/156/55 89/150/55 90/164/55
f 82/156/56 96/163/56 88/157/56
f 88/158/52 95/167/52 87/159/52
f 83/151/56 93/168/56 91/161/56
f 5/1/1 12/30/1 11/2/1
f 3/4/2 7/21/2 8/5/2
f 7/7/3 5/22/3 6/8/3
f 2/10/4 4/6/4 8/5/4
f 1/12/5 3/24/5 4/13/5
f 5/1/6 1/3/6 2/15/6
f 10/17/7 14/93/7 16/18/7
f 3/4/8 9/28/8 10/20/8
f 7/7/9 10/17/9 12/19/9
f 1/12/10 11/31/10 9/23/10
f 16/25/6 20/45/6 19/26/6
f 9/28/11 13/39/11 14/29/11
f 12/30/12 16/25/12 15/27/12
f 11/31/13 15/84/13 13/32/13
f 18/33/14 22/55/14 24/34/14
f 13/32/15 42/85/15 44/36/15
f 16/18/16 46/94/16 48/38/16
f 13/39/2 17/44/2 18/40/2
f 21/41/2 25/63/2 26/42/2
f 17/44/17 21/41/17 22/43/17
f 20/45/18 24/52/18 23/46/18
f 19/47/19 23/53/19 21/48/19
f 28/49/20 32/70/20 31/50/20
f 24/52/6 28/49/6 27/51/6
f 23/53/5 27/60/5 25/54/5
f 22/55/3 26/62/3 28/56/3
f 30/57/21 34/77/21 36/58/21
f 27/60/22 31/71/22 29/61/22
f 26/62/23 30/57/23 32/59/23
f 25/63/24 29/68/24 30/64/24
f 36/65/25 40/73/25 39/66/25
f 29/68/26 33/79/26 34/69/26
f 32/70/27 36/65/27 35/67/27
f 31/71/28 35/75/28 33/72/28
f 40/73/29 38/169/29 37/74/29
f 35/75/30 39/170/30 37/76/30
f 34/77/31 38/171/31 40/78/31
f 33/79/32 37/172/32 38/80/32
f 43/81/6 55/173/6 53/82/6
f 15/84/33 41/86/33 42/85/33
f 19/47/34 43/87/34 41/86/34
f 17/37/35 44/36/35 43/87/35
f 47/88/2 51/174/2 49/89/2
f 20/35/36 48/38/36 47/91/36
f 18/33/37 47/91/37 45/92/37
f 14/93/38 45/92/38 46/94/38
f 49/95/3 51/99/3 52/96/3
f 48/98/29 52/96/29 51/99/29
f 46/101/6 50/124/6 52/102/6
f 41/83/39 57/121/39 58/104/39
f 53/106/5 55/113/5 56/107/5
f 54/108/40 64/118/40 63/109/40
f 42/105/2 54/126/2 56/110/2
f 44/112/29 56/107/29 55/113/29
f 61/115/41 69/145/41 67/116/41
f 64/118/57 72/175/57 71/119/57
f 41/83/43 53/82/43 63/120/43
f 50/97/39 62/176/39 61/122/39
f 46/101/43 60/127/43 62/123/43
f 45/90/44 49/89/44 61/115/44
f 42/105/44 58/104/44 64/125/44
f 45/90/40 59/117/40 60/127/40
f 66/128/45 74/132/45 80/129/45
f 65/131/3 73/142/3 74/132/3
f 59/117/57 67/116/57 68/133/57
f 63/120/46 71/147/46 65/131/46
f 62/123/46 60/127/46 68/133/46
f 61/122/58 62/176/58 70/135/58
f 58/104/58 57/121/58 65/131/58
f 58/104/41 66/128/41 72/130/41
f 76/137/48 84/153/48 86/138/48
f 79/140/48 87/177/48 81/141/48
f 71/119/5 72/175/5 80/143/5
f 69/145/45 77/160/45 75/146/45
f 68/133/5 67/116/5 75/146/5
f 71/147/50 79/140/50 73/142/50
f 68/133/50 76/137/50 78/139/50
f 70/135/3 78/154/3 77/148/3
f 81/141/51 87/177/51 95/149/51
f 83/151/52 91/161/52 92/152/52
f 78/154/3 86/178/3 85/155/3
f 73/142/3 81/141/3 82/156/3
f 74/132/53 82/156/53 88/157/53
f 79/144/5 80/143/5 88/158/5
f 77/160/53 85/179/53 83/151/53
f 76/137/5 75/146/5 83/151/5
f 91/161/54 93/168/54 94/162/54
f 89/150/54 95/149/54 96/163/54
f 84/153/51 92/152/51 94/162/51
f 85/155/55 86/178/55 94/165/55
f 82/156/55 81/141/55 89/150/55
f 82/156/56 90/164/56 96/163/56
f 88/158/52 96/180/52 95/167/52
f 83/151/56 85/179/56 93/168/56
