# Blender v2.90.1 OBJ File: 'robot.blend'
# www.blender.org
mtllib robot.mtl
o Cube
v 1.000000 1.000000 -1.000000
v 1.000000 -1.000000 -1.000000
v 1.000000 1.000000 1.000000
v 1.000000 -1.000000 1.000000
v -1.000000 1.000000 -1.000000
v -1.000000 -1.000000 -1.000000
v -1.000000 1.000000 1.000000
v -1.000000 -1.000000 1.000000
v 0.396396 3.195775 0.396396
v -0.396396 3.195775 0.396396
v 0.396396 3.195775 -0.396396
v -0.396396 3.195775 -0.396396
v 0.707780 4.659433 0.707780
v -0.707780 4.659433 0.707780
v 0.707780 4.659433 -0.707780
v -0.707780 4.659433 -0.707780
v 0.707780 5.747853 0.707780
v -0.707780 5.747853 0.707780
v 0.707780 5.747853 -0.707780
v -0.707780 5.747853 -0.707780
v 0.363607 6.039236 0.363607
v -0.363607 6.039236 0.363607
v 0.363607 6.039236 -0.363607
v -0.363607 6.039236 -0.363607
v 0.363607 6.228965 0.363607
v -0.363607 6.228965 0.363607
v 0.363607 6.228965 -0.363607
v -0.363607 6.228965 -0.363607
v 0.527745 6.437937 0.527745
v -0.527745 6.437937 0.527745
v 0.527745 6.437937 -0.527745
v -0.527745 6.437937 -0.527745
v 0.581972 7.220059 0.581972
v -0.581972 7.220059 0.581972
v 0.581972 7.220059 -0.581972
v -0.581972 7.220059 -0.581972
v 0.285750 7.649150 0.285750
v -0.285750 7.649150 0.285750
v 0.285750 7.649150 -0.285750
v -0.285750 7.649150 -0.285750
v 0.980918 4.891058 -0.406536
v 0.980918 4.891058 0.406536
v 0.980918 5.516228 -0.406536
v 0.980918 5.516228 0.406536
v -0.980918 4.891058 0.406536
v -0.980918 4.891058 -0.406536
v -0.980918 5.516228 0.406536
v -0.980918 5.516228 -0.406536
v -1.280918 4.891058 0.406536
v -1.280918 4.891058 -0.406536
v -1.280918 5.516228 0.406536
v -1.280918 5.516228 -0.406536
v 1.280918 4.891058 -0.406536
v 1.280918 4.891058 0.406536
v 1.280918 5.516228 -0.406536
v 1.280918 5.516228 0.406536
v 1.039887 4.005651 -0.246717
v 1.039887 4.005651 0.246717
v -1.039887 4.005651 0.246717
v -1.039887 4.005651 -0.246717
v -1.221950 4.005651 0.246717
v -1.221950 4.005651 -0.246717
v 1.221950 4.005651 -0.246717
v 1.221950 4.005651 0.246717
v 0.980918 3.537906 -0.406536
v 0.980918 3.356243 0.406536
v -0.980918 3.356243 0.406536
v -0.980918 3.537906 -0.406536
v -1.280918 3.356243 0.406536
v -1.280918 3.537906 -0.406536
v 1.280918 3.537906 -0.406536
v 1.280918 3.356243 0.406536
v 0.980918 2.342852 -0.795716
v 0.980918 2.342852 -0.481741
v -0.980918 2.342852 -0.481741
v -0.980918 2.342852 -0.795716
v -1.280918 2.342852 -0.481741
v -1.280918 2.342852 -0.795716
v 1.280918 2.342852 -0.795716
v 1.280918 2.342852 -0.481741
v 0.980918 2.075831 -1.046264
v 0.980918 1.921174 -0.773021
v -0.980918 1.921174 -0.773021
v -0.980918 2.075831 -1.046264
v -1.280918 1.921174 -0.773021
v -1.280918 2.075831 -1.046264
v 1.280918 2.075831 -1.046264
v 1.280918 1.921174 -0.773021
v 1.055918 1.868141 -1.073623
v 1.055918 1.790813 -0.937002
v -1.055918 1.790813 -0.937002
v -1.055918 1.868141 -1.073623
v -1.205918 1.790813 -0.937002
v -1.205918 1.868141 -1.073623
v 1.205918 1.868141 -1.073623
v 1.205918 1.790813 -0.937002
vt 0.625000 0.500000
vt 0.625000 0.250000
vt 0.625000 0.250000
vt 0.625000 0.500000
vt 0.375000 0.750000
vt 0.625000 0.750000
vt 0.625000 1.000000
vt 0.375000 1.000000
vt 0.375000 0.000000
vt 0.625000 0.000000
vt 0.375000 0.250000
vt 0.125000 0.500000
vt 0.375000 0.500000
vt 0.125000 0.750000
vt 0.625000 0.750000
vt 0.625000 1.000000
vt 0.625000 0.000000
vt 0.625000 0.500000
vt 0.625000 0.250000
vt 0.625000 0.250000
vt 0.625000 0.500000
vt 0.625000 0.000000
vt 0.625000 0.000000
vt 0.625000 0.250000
vt 0.625000 0.750000
vt 0.625000 0.750000
vt 0.625000 0.750000
vt 0.625000 0.750000
vt 0.625000 0.250000
vt 0.625000 0.250000
vt 0.625000 1.000000
vt 0.625000 1.000000
vt 0.625000 1.000000
vt 0.625000 0.750000
vt 0.625000 0.750000
vt 0.625000 1.000000
vt 0.625000 0.500000
vt 0.625000 0.500000
vt 0.625000 0.250000
vt 0.625000 0.250000
vt 0.625000 0.500000
vt 0.625000 0.000000
vt 0.625000 0.750000
vt 0.625000 0.000000
vt 0.625000 1.000000
vt 0.625000 0.500000
vt 0.625000 0.250000
vt 0.625000 0.250000
vt 0.625000 0.500000
vt 0.625000 0.750000
vt 0.625000 1.000000
vt 0.875000 0.500000
vt 0.875000 0.750000
vt 0.625000 0.750000
vt 0.625000 0.000000
vt 0.625000 0.000000
vt 0.625000 1.000000
vt 0.625000 0.500000
vt 0.625000 0.500000
vt 0.625000 0.500000
vt 0.625000 0.500000
vt 0.625000 1.000000
vt 0.625000 1.000000
vt 0.625000 1.000000
vt 0.625000 1.000000
vt 0.625000 0.000000
vt 0.625000 0.000000
vt 0.625000 0.000000
vt 0.625000 0.250000
vt 0.625000 0.000000
vt 0.625000 0.000000
vt 0.625000 0.250000
vt 0.625000 0.500000
vt 0.625000 0.750000
vt 0.625000 0.750000
vt 0.625000 0.750000
vt 0.625000 0.750000
vt 0.625000 0.500000
vt 0.625000 1.000000
vt 0.625000 1.000000
vt 0.625000 1.000000
vt 0.625000 1.000000
vt 0.625000 0.750000
vt 0.625000 0.500000
vt 0.625000 0.250000
vt 0.625000 0.000000
vt 0.625000 0.250000
vt 0.625000 0.000000
vt 0.625000 0.750000
vt 0.625000 0.750000
vt 0.625000 0.750000
vt 0.625000 0.500000
vt 0.625000 0.500000
vt 0.625000 0.000000
vt 0.625000 0.250000
vt 0.625000 0.250000
vt 0.625000 0.000000
vt 0.625000 0.250000
vt 0.625000 0.250000
vt 0.625000 0.250000
vt 0.625000 0.250000
vt 0.625000 0.500000
vt 0.625000 0.500000
vt 0.625000 0.500000
vt 0.625000 1.000000
vt 0.625000 1.000000
vt 0.625000 0.000000
vt 0.625000 0.000000
vt 0.625000 0.500000
vt 0.625000 0.500000
vt 0.625000 0.000000
vt 0.625000 0.000000
vt 0.625000 0.250000
vt 0.625000 0.000000
vt 0.625000 0.750000
vt 0.625000 0.750000
vt 0.625000 1.000000
vt 0.625000 1.000000
vt 0.625000 0.000000
vt 0.625000 0.250000
vt 0.625000 0.750000
vt 0.625000 0.750000
vt 0.625000 1.000000
vt 0.625000 1.000000
vn 0.0000 0.2651 -0.9642
vn 0.0000 0.0000 1.0000
vn -1.0000 0.0000 0.0000
vn 0.0000 -1.0000 0.0000
vn 1.0000 0.0000 0.0000
vn 0.0000 0.0000 -1.0000
vn 0.0000 0.2651 0.9642
vn -0.9642 0.2651 0.0000
vn 0.9642 0.2651 0.0000
vn -0.6461 0.7632 0.0000
vn 0.7408 0.0000 0.6717
vn -0.7408 0.0000 -0.6717
vn 0.0000 0.7632 0.6461
vn 0.0000 0.7632 -0.6461
vn 0.6461 0.7632 0.0000
vn 0.0000 -0.6177 -0.7864
vn 0.7864 -0.6177 0.0000
vn -0.7864 -0.6177 0.0000
vn 0.0000 -0.6177 0.7864
vn 0.0000 0.5681 -0.8229
vn 0.0000 -0.0692 0.9976
vn 0.0000 1.0000 0.0000
vn 0.8229 0.5681 0.0000
vn -0.8229 0.5681 0.0000
vn 0.0000 0.5681 0.8229
vn 0.6468 -0.7627 0.0000
vn 0.7408 0.0000 -0.6717
vn 0.6468 0.7627 0.0000
vn -0.6468 0.7627 0.0000
vn -0.7408 0.0000 0.6717
vn -0.6468 -0.7627 0.0000
vn -0.9978 -0.0665 0.0000
vn 0.9978 -0.0665 0.0000
vn 0.0000 0.2390 0.9710
vn 0.9944 0.1050 0.0146
vn 0.0000 -0.1776 -0.9841
vn 0.0000 -0.1776 0.9841
vn 0.0000 -0.6592 0.7520
vn 0.0000 0.3233 -0.9463
vn -0.9944 0.1050 0.0146
vn 0.0000 0.6843 -0.7292
vn 0.0000 0.3097 -0.9508
vn 0.0000 0.1306 -0.9914
vn 0.9329 -0.3135 -0.1774
vn 0.0000 -0.5684 0.8228
vn 0.0000 -0.8703 -0.4926
vn -0.9329 -0.3135 -0.1774
vn 0.0000 -0.7828 0.6223
vn -0.9976 -0.0692 0.0000
vn 0.0000 -0.0692 -0.9976
vn 0.9976 -0.0692 0.0000
vn -0.9781 -0.2081 0.0000
vn 0.0000 -0.2081 0.9781
vn 0.0000 -0.2081 -0.9781
vn 0.9781 -0.2081 0.0000
usemtl Material
s off
f 1/1/1 5/2/1 12/3/1 11/4/1
f 4/5/2 3/6/2 7/7/2 8/8/2
f 8/9/3 7/10/3 5/2/3 6/11/3
f 6/12/4 2/13/4 4/5/4 8/14/4
f 2/13/5 1/1/5 3/6/5 4/5/5
f 6/11/6 5/2/6 1/1/6 2/13/6
f 7/7/7 3/6/7 9/15/7 10/16/7
f 5/2/8 7/10/8 10/17/8 12/3/8
f 3/6/9 1/1/9 11/4/9 9/15/9
f 15/18/6 16/19/6 20/20/6 19/21/6
f 20/20/10 18/22/10 22/23/10 24/24/10
f 17/25/11 13/26/11 42/27/11 44/28/11
f 20/20/12 16/19/12 46/29/12 48/30/12
f 14/31/2 13/26/2 17/25/2 18/32/2
f 22/33/2 21/34/2 25/35/2 26/36/2
f 18/32/13 17/25/13 21/34/13 22/33/13
f 19/21/14 20/20/14 24/24/14 23/37/14
f 17/25/15 19/21/15 23/37/15 21/34/15
f 27/38/16 28/39/16 32/40/16 31/41/16
f 23/37/6 24/24/6 28/39/6 27/38/6
f 21/34/5 23/37/5 27/38/5 25/35/5
f 24/24/3 22/23/3 26/42/3 28/39/3
f 25/35/17 27/38/17 31/41/17 29/43/17
f 28/39/18 26/42/18 30/44/18 32/40/18
f 26/36/19 25/35/19 29/43/19 30/45/19
f 35/46/20 36/47/20 40/48/20 39/49/20
f 30/45/21 29/43/21 33/50/21 34/51/21
f 39/49/22 40/52/22 38/53/22 37/54/22
f 33/50/23 35/46/23 39/49/23 37/54/23
f 36/47/24 34/55/24 38/56/24 40/48/24
f 34/51/25 33/50/25 37/54/25 38/57/25
f 41/58/6 43/59/6 55/60/6 53/61/6
f 13/26/26 15/18/26 41/58/26 42/27/26
f 15/18/27 19/21/27 43/59/27 41/58/27
f 19/21/28 17/25/28 44/28/28 43/59/28
f 45/62/2 47/63/2 51/64/2 49/65/2
f 18/22/29 20/20/29 48/30/29 47/66/29
f 14/31/30 18/32/30 47/63/30 45/62/30
f 16/19/31 14/67/31 45/68/31 46/29/31
f 50/69/3 49/70/3 51/71/3 52/72/3
f 47/66/22 48/30/22 52/72/22 51/71/22
f 48/30/6 46/29/6 50/69/6 52/72/6
f 42/27/32 41/58/32 57/73/32 58/74/32
f 54/75/5 53/61/5 55/60/5 56/76/5
f 53/61/33 54/75/33 64/77/33 63/78/33
f 44/28/2 42/27/2 54/75/2 56/76/2
f 43/59/22 44/28/22 56/76/22 55/60/22
f 59/79/34 61/80/34 69/81/34 67/82/34
f 63/78/35 64/77/35 72/83/35 71/84/35
f 41/58/36 53/61/36 63/78/36 57/73/36
f 49/70/32 50/69/32 62/85/32 61/86/32
f 50/69/36 46/29/36 60/87/36 62/85/36
f 45/62/37 49/65/37 61/80/37 59/79/37
f 54/75/37 42/27/37 58/74/37 64/77/37
f 46/29/33 45/68/33 59/88/33 60/87/33
f 72/83/38 66/89/38 74/90/38 80/91/38
f 66/89/3 65/92/3 73/93/3 74/90/3
f 60/87/35 59/88/35 67/94/35 68/95/35
f 57/73/39 63/78/39 71/84/39 65/92/39
f 62/85/39 60/87/39 68/95/39 70/96/39
f 61/86/40 62/85/40 70/96/40 69/97/40
f 58/74/40 57/73/40 65/92/40 66/89/40
f 64/77/34 58/74/34 66/89/34 72/83/34
f 78/98/41 76/99/41 84/100/41 86/101/41
f 73/93/41 79/102/41 87/103/41 81/104/41
f 71/84/5 72/83/5 80/91/5 79/102/5
f 67/82/38 69/81/38 77/105/38 75/106/38
f 68/95/5 67/94/5 75/107/5 76/99/5
f 65/92/42 71/84/42 79/102/42 73/93/42
f 70/96/42 68/95/42 76/99/42 78/98/42
f 69/97/3 70/96/3 78/98/3 77/108/3
f 81/104/43 87/103/43 95/109/43 89/110/43
f 84/100/44 83/111/44 91/112/44 92/113/44
f 77/108/3 78/98/3 86/101/3 85/114/3
f 74/90/3 73/93/3 81/104/3 82/115/3
f 80/91/45 74/90/45 82/115/45 88/116/45
f 79/102/5 80/91/5 88/116/5 87/103/5
f 75/106/45 77/105/45 85/117/45 83/118/45
f 76/99/5 75/107/5 83/111/5 84/100/5
f 92/113/46 91/112/46 93/119/46 94/120/46
f 90/121/46 89/110/46 95/109/46 96/122/46
f 86/101/43 84/100/43 92/113/43 94/120/43
f 85/114/47 86/101/47 94/120/47 93/119/47
f 82/115/47 81/104/47 89/110/47 90/121/47
f 88/116/48 82/115/48 90/121/48 96/122/48
f 87/103/44 88/116/44 96/122/44 95/109/44
f 83/118/48 85/117/48 93/123/48 91/124/48
usemtl Material.001
f 32/40/49 30/44/49 34/55/49 36/47/49
f 31/41/50 32/40/50 36/47/50 35/46/50
f 29/43/51 31/41/51 35/46/51 33/50/51
usemtl Material.002
f 12/3/52 10/17/52 14/67/52 16/19/52
f 10/16/53 9/15/53 13/26/53 14/31/53
f 11/4/54 12/3/54 16/19/54 15/18/54
f 9/15/55 11/4/55 15/18/55 13/26/55
